<svg xmlns="http://www.w3.org/2000/svg" viewBox="0 0 468.75 142.1"><defs><style>.cls-1{fill:#ff003c;}</style></defs><g id="Layer_2" data-name="Layer 2"><g id="Layer_1-2" data-name="Layer 1"><path class="cls-1" d="M422.17,58.86c-.41-1,.1-1.17.81-1.17,2.8,0,5.6,0,8.4,0h19.26c.3.34.12.7.2,1.16-3.43,0-6.77,0-10.12,0a3.35,3.35,0,0,0-2.55,1c-4,3.85-8.17,7.56-12.17,11.44-2.64,2.55-5.24,5.16-8,7.54-1.11.94-1,1.69-.13,2.83,2.08,2.59,4.08,5.26,6.11,7.88,1.09,1.4,2.2,2.78,3.29,4.18,2.87,3.69,5.66,7.44,8.62,11.06s5.58,7.14,8.38,10.71c2.36,3,4.76,6,7,9.1,1.73,2.35,3.6,4.6,5.41,6.9,1.32,1.68,2.72,3.3,3.9,5.07a3.12,3.12,0,0,0,2.91,1.46h5.09a.94.94,0,0,1,.11,1,1.9,1.9,0,0,1-1.17.15H420.36c-.63,0-1.6.27-1.14-1.08,3.67-.16,7.34-.12,11-.07a5.78,5.78,0,0,0,.72,0c.55,0,1.11-.09,1.4-.71s0-1.07-.39-1.51c-1.65-2.1-3.32-4.19-5-6.3-2.15-2.74-4.24-5.53-6.45-8.22-3.18-3.88-6.24-7.86-9.34-11.79q-5.37-6.81-10.68-13.67a2.1,2.1,0,0,0-2.1-.72c-.43,0-.62.32-.63.74s0,1,0,1.56v38.25c0,2.05.41,2.4,2.46,2.37,3,0,5.92,0,8.87,0,.41,0,.84-.05.83.57s-.44.56-.85.56H363.28c-.16,0-.31,0-.43,0-.28-.38-.15-.72-.09-1.13,3.4,0,6.75,0,10.09,0,2.26,0,2.67-.3,2.67-2.57V4.85c0-2-.52-2.44-2.51-2.34a63.74,63.74,0,0,1-8.74,0,10.31,10.31,0,0,0-1.44.09c-.3-.36-.09-.81-.15-1.18.28-.46.68-.31,1-.31q16.24,0,32.5,0c.93,0,1.54,0,1.55,1.39.09,7.31,0,14.63,0,21.94q0,32.37,0,64.75c0,.76,0,1.52,0,2.28s-.14,1.4.65,1.62a1.92,1.92,0,0,0,2.09-.42c2.81-2.82,5.79-5.48,8.76-8.13,5.34-4.78,10.56-9.7,15.82-14.56,3.2-2.95,6.49-5.8,9.72-8.71.46-.41,1.16-.81.8-1.57s-1.12-.83-1.85-.83c-2.32,0-4.64,0-7,0Z"/><path class="cls-1" d="M114.8,99.69a7.38,7.38,0,0,1,2.16,0,10.61,10.61,0,0,0-.11,2.51q0,17.56,0,35.13c0,1.89,0,1.89-1.94,1.69a6.68,6.68,0,0,0-6-4,25.06,25.06,0,0,0-8.5,1.76c-1.27.52-2.85.52-4.21,1-2.47.8-5,1.28-7.53,2a83.08,83.08,0,0,1-19,2.34c-2.14.09-4.17-.69-6.28-.64-2.53.07-4.87-1-7.39-1.11-1.29-.06-2.59-.82-3.94-1.14-2.4-.58-4.63-1.68-7-2.29-1-.25-1.83-1-2.84-1.39-1.56-.57-3-1.45-4.5-2.15-1.15-.54-2.23-1.34-3.35-2a71.87,71.87,0,0,1-23.22-22.43c-1-1.47-1.79-3-2.76-4.51a55.31,55.31,0,0,1-2.52-5.26,40.86,40.86,0,0,1-2.64-6.68c-.45-1.51-.92-3.1-1.32-4.65C1.37,85.94,1.24,84,.74,82.12A14.18,14.18,0,0,1,0,78.19c.09-4.64.08-9.27,0-13.91a8.8,8.8,0,0,1,.6-2.87c.52-1.72.6-3.51,1-5.25.4-1.94,1.18-3.76,1.51-5.72a25.43,25.43,0,0,1,1.13-3.19c.63-2,1.69-3.71,2.41-5.64a40.92,40.92,0,0,1,2.9-5.25,62.24,62.24,0,0,1,5.18-7.65,41.19,41.19,0,0,1,4.16-4.82c1.54-1.46,3-3,4.59-4.39a85.43,85.43,0,0,1,8.85-6.87c2.27-1.57,4.69-2.85,7-4.28,1.81-1.1,3.91-1.72,5.81-2.69a33.73,33.73,0,0,1,6.7-2.46c1.65-.45,3.35-1,5-1.44,2.56-.76,5.33-.37,7.75-1.6A2.48,2.48,0,0,1,65.71,0c2.67,0,5.35,0,8,0a19.78,19.78,0,0,1,6.93.83,5.24,5.24,0,0,0,1.89.25,13.61,13.61,0,0,1,2.64.44C87.21,1.82,89,2.8,91,3c1.44.16,2.8.94,4.22,1.3s2.53.84,3.8,1.2a39.79,39.79,0,0,0,7.85,1.61c2.48.2,4.83-.22,6.34-2.56a3.39,3.39,0,0,0,.4-.72,4.11,4.11,0,0,0,.13-.84h1.57c.34.36.21.78.21,1.16V39.79c0,.12,0,.24,0,.36,0,.38.11.9-.49.91s-.72-.23-.9-.75c-.89-2.57-1.84-5.12-2.76-7.68a48.54,48.54,0,0,0-2.19-5.29c-1-2-2-4-3.12-5.88a56.57,56.57,0,0,0-5.44-7.67A35.68,35.68,0,0,0,90.52,5.58,31.46,31.46,0,0,0,81.8,2.36c-1.34-.27-2.67-.26-4-.47s-2.76-.59-4.2-.67a21.7,21.7,0,0,0-8,.65,1.47,1.47,0,0,1-.59,0,16.81,16.81,0,0,0-6.92.87A36.68,36.68,0,0,0,52,5.14a45.86,45.86,0,0,0-4.58,2.61,26.48,26.48,0,0,0-6.67,6.39A32.63,32.63,0,0,0,36,22.42a49.23,49.23,0,0,0-2.31,6.75,17.45,17.45,0,0,1-1.32,5,1,1,0,0,0-.09.34c-.39,4.46-1.38,8.83-1.7,13.3-.16,2.2-.23,4.39-.19,6.58.07,4.55-.59,9.06-.59,13.62,0,4.23,0,8.47.33,12.69.2,2.55.21,5.09.22,7.64a65.92,65.92,0,0,0,.72,8.07,41.22,41.22,0,0,0,.62,5.33c.74,2.86.74,5.86,1.64,8.67.52,1.61.77,3.26,1.37,4.87.85,2.24,1.74,4.47,2.61,6.71A28.16,28.16,0,0,0,39.54,126,26.84,26.84,0,0,0,43.36,131a29.46,29.46,0,0,0,8.72,6.21,30.45,30.45,0,0,0,4.53,1.69,55.55,55.55,0,0,0,18.51,1.77,7.63,7.63,0,0,0,4-.89.87.87,0,0,1,.46-.1c2,.12,3.71-.85,5.54-1.49a38.9,38.9,0,0,0,15.27-10.45,43.15,43.15,0,0,0,6.37-8.3c1-1.75,2-3.49,3-5.26a48.23,48.23,0,0,0,3.1-7.2c.52-1.5,1-3,1.54-4.51A22.09,22.09,0,0,0,114.8,99.69Z"/><path class="cls-1" d="M134.62,98.37q0-18.65,0-37.29c0-1.84-.41-2.24-2.24-2.23l-9.83,0c-.43,0-.84,0-.83-.59s.4-.65.91-.65q16.55,0,33.09,0c.95,0,.93.46.93,1.11q0,6.66,0,13.31c0,.47-.12,1,.37,1.31.74.45,1.16.06,1.51-.6a40.1,40.1,0,0,1,2.91-5.22A32.08,32.08,0,0,1,167.57,61a30.19,30.19,0,0,1,7-3.68c2.84-1.15,5.76-1.17,8.65-1.35a14.45,14.45,0,0,1,5.14.63c4.06,1.36,7.87,3.35,9.85,7.53a17.16,17.16,0,0,1,1.52,10,11.13,11.13,0,0,1-1.12,4.21,9.46,9.46,0,0,1-4.36,4c-2.69,1.33-5.4,1.08-8.08.89a10.12,10.12,0,0,1-6.47-2.68c-1.62-1.57-1.8-3.56-1.77-5.72a48.36,48.36,0,0,1,1.24-8,5.3,5.3,0,0,0-2.24-5.49,4.77,4.77,0,0,0-3.66-.73c-5.17.83-8.06,4.64-10.89,8.42a19.41,19.41,0,0,0-3.69,7.39c-.43,2-1.84,3.76-1.27,5.93-1.52,7.4-.57,14.88-.7,22.33-.17,10.22,0,20.46,0,30.69,0,2.39.43,2.8,2.8,2.72,3.83-.12,7.67-.08,11.51,0,.41,0,.95-.16,1,.54s-.53.58-.95.58H122.31a.6.6,0,0,1-.59-.74c0-.41.37-.5.7-.49,3.23,0,6.47,0,9.7.11,2,.05,2.49-.33,2.49-2.35Q134.63,117,134.62,98.37Z"/><path class="cls-1" d="M277.51,118.42c1.61.54.87,1.65.6,2.29a33.52,33.52,0,0,1-3.42,6.76,34.34,34.34,0,0,1-6.12,6.75,74,74,0,0,1-6.41,4.17,6.92,6.92,0,0,1-2,.66c-1.53.42-3,1.12-4.52,1.52-2.61.67-5.26.72-7.87,1.13a18.43,18.43,0,0,1-5,.05,69.52,69.52,0,0,1-7.35-.72c-2.84-.62-5.66-1.27-8.44-2.16-1.81-.58-3.49-1.46-5.3-2a16.49,16.49,0,0,1-3.57-2,43.12,43.12,0,0,1-6.16-4.52,50.56,50.56,0,0,1-5.86-6.46c-1-1.27-1.55-2.78-2.64-4a7.19,7.19,0,0,1-.77-1.69,48.64,48.64,0,0,1-2.25-5.73c-1.66-4.44-1.79-9.15-2.37-13.76-.3-2.44.68-4.86.87-7.32.12-1.47.61-2.86.82-4.31a15.36,15.36,0,0,1,1.18-2.93,31.89,31.89,0,0,1,2.19-4.88,55.83,55.83,0,0,1,4.42-6.81,57.45,57.45,0,0,1,6.65-6.94A52.59,52.59,0,0,1,220.6,61c1.52-1,3.23-1.56,4.79-2.44a8.8,8.8,0,0,1,2.84-1.05,5,5,0,0,0,1.77-.68,4.18,4.18,0,0,1,1.58-.43c1.86-.31,3.73-.62,5.59-1a30.65,30.65,0,0,1,10.89,0c2.05.35,4.12.72,6.18,1a18.4,18.4,0,0,1,4,1.47c1.51.62,3,1.21,4.47,2a35,35,0,0,1,3.43,2.26,29.94,29.94,0,0,1,8,8.18,32.87,32.87,0,0,1,3.65,7.34,28.25,28.25,0,0,1,1.36,5.6c.17,1.21.55,2.39.84,3.58a5.94,5.94,0,0,1,.24.79c.31,2.83.29,2.85-2.56,2.85H225.21c-2.13,0-2.63.61-2.43,2.79.08.87,0,1.75.05,2.63l.12,13.31c0,1.6.63,3.12.69,4.71a29.47,29.47,0,0,0,.87,6.48,34.72,34.72,0,0,0,2.58,7.55,27.76,27.76,0,0,0,2.44,4.19,19.57,19.57,0,0,0,9.2,6.86c4.49,1.46,9.13,2.24,13.78,1.33a31.79,31.79,0,0,0,10.29-3.43,33,33,0,0,0,10.31-9.58,21.58,21.58,0,0,0,3.47-6.78C276.78,119.85,277.36,119.3,277.51,118.42ZM239.2,89.29h14c1.27,0,1.78-.44,1.76-1.7-.1-5.87.28-11.74-.2-17.6a17.17,17.17,0,0,0-3.38-9.25,9.5,9.5,0,0,0-6.56-3.94c-3.65-.34-7.34-.43-10.81,1.46a15.73,15.73,0,0,0-6.52,6.38,29.92,29.92,0,0,0-2.85,8.24c-.95,4.62-1.1,9.3-1.5,14-.18,2.09.3,2.45,2.36,2.45Z"/><path class="cls-1" d="M365.72,90.51H311.3c-2,0-2.36.39-2.36,2.39,0,3.8-.16,7.6.07,11.39.28,4.51.3,9,1.14,13.53.46,2.5,1.28,4.83,1.94,7.25a21.06,21.06,0,0,0,7.45,11.05,16.3,16.3,0,0,0,5.12,2.85c4.53,1.46,9.2,2.32,13.88,1.38a35.74,35.74,0,0,0,7.89-2.16,31.67,31.67,0,0,0,11.69-9.28,32.8,32.8,0,0,0,4.27-7c.51-1.09,1.29-2.3.87-3.66.82-.24.93.67,1.73.5-.9,1.56-.9,3.25-1.65,4.45-1.72,2.78-3.26,5.68-5.54,8.12a34.32,34.32,0,0,1-6.42,5.33,31.94,31.94,0,0,1-4.06,2c-1.18.55-2.53.69-3.59,1.5a1.41,1.41,0,0,1-.52.26c-4.3.7-8.6,1.58-13,1.38a56.75,56.75,0,0,1-9-.81,65.61,65.61,0,0,1-8.2-2.17c-1.71-.61-3.38-1.35-5.11-1.93a21,21,0,0,1-3.67-2.07,32.92,32.92,0,0,1-6.63-4.89,40.41,40.41,0,0,1-6.78-8.11c-.78-1.35-1.49-2.77-2.27-4.12-.53-.93-.79-2.15-1.26-3.11a31.33,31.33,0,0,1-1.94-6.89c-1-4.29-.85-8.66-.67-13a37.44,37.44,0,0,1,1.64-8.22A40.64,40.64,0,0,1,289,79.76a36.36,36.36,0,0,1,4.71-7.41,51.68,51.68,0,0,1,8.05-8c1.95-1.6,4.16-2.78,6.22-4.18a29.09,29.09,0,0,1,4.22-1.88c1.39-.64,3-.67,4.25-1.67a.66.66,0,0,1,.31-.16c4.13-.47,8.18-1.6,12.35-1.61,2.17,0,4.32.61,6.5.79,1.7.14,3.29.76,5,.88,1,.06,1.87.85,2.89,1.18a29.58,29.58,0,0,1,4.91,2.12,32.39,32.39,0,0,1,5.39,3.59,32.12,32.12,0,0,1,10,14.05,32.81,32.81,0,0,1,2,12.76S365.83,90.29,365.72,90.51Zm-40.57-1.22h13.91c1.66,0,2.1-.39,2.07-2-.1-5.42.13-10.85-.17-16.28a18.45,18.45,0,0,0-2.76-9.33,10.26,10.26,0,0,0-8.48-5c-1,0-1.92,0-2.87,0A14.45,14.45,0,0,0,316.37,61c-3.3,3.13-4.56,7.34-5.6,11.52-1.2,4.8-1,9.79-1.49,14.69-.16,1.65.31,2.07,2,2.07Z"/></g></g></svg>