<svg xmlns="http://www.w3.org/2000/svg" viewBox="0 0 522.92 142.55"><defs><style>.cls-1{fill:#fcee0a;}</style></defs><g id="Layer_2" data-name="Layer 2"><g id="Layer_1-2" data-name="Layer 1"><path class="cls-1" d="M242.36,139.32c0-1.32.72-1.54,1.82-1.51,2.84.07,5.68,0,8.52,0,1.75,0,2.19-.48,2.05-2.21,0-.28,0-.56,0-.84,0-18.82,0-37.65,0-56.47a34.47,34.47,0,0,0-.94-8.56c-1-3.8-3.12-6.88-6.83-8.36-2.61-1-5.46-1.65-8.28-.5-1,.41-2.05.22-3.09.65a23.16,23.16,0,0,0-6.86,4.23A28.07,28.07,0,0,0,223,73.51a36.25,36.25,0,0,0-3.27,8.9,39.29,39.29,0,0,0-1.06,6.64c-1,15.6-.21,31.21-.46,46.81,0,1.72.25,2,2,2h9.73c.44.26.23.65.38.92.47.81-.06,1-.69,1H183.68c-.5,0-1.07.13-1.27-.58-.24-.88.11-1.37,1.06-1.37,3.36,0,6.71,0,10.07,0,1.54,0,2-.5,2-2.07V5.55c0-1.95-.5-2.45-2.48-2.45h-8.4a4.78,4.78,0,0,0-1.29.15c-.63.17-.9-.33-1-.88s.37-.9.83-.91c1.69-.06,3.38,0,5.07,0h28.06c1.81,0,1.81,0,1.81,1.75V73.92c0,.32,0,.64,0,1,0,.49.1.88.7.9s.9,0,1.12-.63a29.14,29.14,0,0,1,9.25-12.4,28.54,28.54,0,0,1,6.87-4,48.39,48.39,0,0,1,7.76-2.25,19.74,19.74,0,0,1,5.22-.38c2.54.08,5.12-.22,7.62.33a29.27,29.27,0,0,1,8.4,2.89,22.15,22.15,0,0,1,9.79,10.82,20.8,20.8,0,0,1,1.91,6.4,52.7,52.7,0,0,1,.75,5.5q-.06,26.92,0,53.84c0,1.77.14,1.91,1.91,1.91h20.88c1.38,0,1.84-.47,1.84-1.86q0-37.17,0-74.34c0-1.57-.52-2.1-2.15-2.13-3-.06-6,0-9,0a1.68,1.68,0,0,0-.94.09.62.62,0,0,1-.94-.15,1.17,1.17,0,0,1-.15-1.22c.19-.36.53-.41.92-.41q16.67,0,33.31,0c1.57,0,1.57,0,1.57,1.61q0,38.07,0,76.14c0,2,.24,2.28,2.23,2.28,3,0,5.92,0,8.88,0,.67,0,1.73-.49,1.75.92s-1,1-1.7,1q-22.44,0-44.86,0h-47C243.51,139.78,242.86,139.87,242.36,139.32Z"/><path class="cls-1" d="M426.62,33.21V55.86c0,1.76.18,1.94,1.88,1.94h17.64c.58,0,1.17.12,1.76.11,1.59,0,1.72.17,1.22,1.59H429c-2,0-2.37.36-2.37,2.33,0,21.39-.06,42.77.08,64.15a18.73,18.73,0,0,0,1.23,7.64,8.67,8.67,0,0,0,4.35,4.81,13.09,13.09,0,0,0,7.15.8,13.66,13.66,0,0,0,7.18-3.55,17.73,17.73,0,0,0,4.07-5.45,49.9,49.9,0,0,0,2.83-7.15.74.74,0,0,1,1-.54,10.2,10.2,0,0,1,1,.37c.35,1.83-.71,3.39-1.17,5.06a17.25,17.25,0,0,1-2.85,5.58,20.43,20.43,0,0,1-7.57,6.32c-2.66,1.31-5.56,1.61-8.3,2.52a9.92,9.92,0,0,1-3,.06c-1.91,0-3.84-.11-5.75,0-2.3.16-4.46-.53-6.66-.92a30.41,30.41,0,0,1-6.09-1.74,15.1,15.1,0,0,1-7.83-6.63,16.26,16.26,0,0,1-2.11-7.39c-1.08-21-.19-42.08-.49-63.12,0-.69.33-1.35,0-2.1a1.67,1.67,0,0,0-1.62-1.1c-3.43,0-6.86,0-10.29,0H369.51c-1.36,0-2,.55-2,1.94,0,20.87-.07,41.73.08,62.6,0,2.63-.18,5.37.69,8,.8,2.41,1.86,4.62,4.11,6a12,12,0,0,0,7.73,1.33,13.35,13.35,0,0,0,7.46-3.63,20.51,20.51,0,0,0,4.25-5.87A42.06,42.06,0,0,0,394,124.4a2.83,2.83,0,0,0,.26-.66c.09-.6,0-1.39.93-1.29a1.33,1.33,0,0,1,1.27,1.85,42.89,42.89,0,0,1-1.76,5.31,21.34,21.34,0,0,1-4.92,7.07,25.27,25.27,0,0,1-4.86,3.18c-2.57,1.4-5.47,1.55-8.13,2.54a3.6,3.6,0,0,1-1.19.06c-2.44,0-4.88-.1-7.31,0a32.09,32.09,0,0,1-7.13-.91,25.07,25.07,0,0,1-6.18-1.81,15.15,15.15,0,0,1-7.06-5.62,17.12,17.12,0,0,1-2.81-8.78c-.59-21.09-.09-42.18-.25-63.27,0-2.26-.21-2.39-2.51-2.51-2.83-.16-5.67,0-8.5-.12-.6,0-1.13.51-1.74.15-.44-1.66-.43-1.64,1.23-1.73,3.15-.18,6.31,0,9.46-.08,1.77,0,2-.23,2.05-2.07,0-1.16,0-2.32,0-3.48,0-5.68,0-11.35.05-17,0-.66-.72-1.47,0-2s1.17.39,1.79.56c3.72,1,7.45,2.11,11.37,1.65a24.61,24.61,0,0,0,6-1.29,8.09,8.09,0,0,1,3.75-.85,4.22,4.22,0,0,0-.28,1.8c0,6.8,0,13.59,0,20.39a5.76,5.76,0,0,0,.11,1.3,1.15,1.15,0,0,0,1.34,1q16.68,0,33.35,0c1.13,0,1.6-.73,1.56-2.1-.2-6.94-.28-13.89.05-20.83,0-.55-.69-1.22.11-1.62.6-.3,1.07.34,1.62.51,3.95,1.28,8,2.2,12.16,1.68a16,16,0,0,0,5.24-1.27c1-.5,2.28-.44,3.26-1.23Z"/><path class="cls-1" d="M.17,97.92a5.87,5.87,0,0,1,2-.07c.77,2.31,1.05,4.79,2,7.07.54,1.32.86,2.71,1.43,4,.68,1.56,1.2,3.21,1.93,4.76a57.13,57.13,0,0,0,6.41,10.66,47,47,0,0,0,12.17,11,24.73,24.73,0,0,0,7,3.28,14,14,0,0,1,2.66.85c1.87.9,3.89.6,5.82.93a39.26,39.26,0,0,0,9.19.24,40.35,40.35,0,0,0,10.34-1.64,31.64,31.64,0,0,0,9.82-5,29.47,29.47,0,0,0,6-6.28A32.56,32.56,0,0,0,80.25,122a28.86,28.86,0,0,0,2.42-12.51A19.78,19.78,0,0,0,78,97c-2.89-3.37-6.49-5.56-10.37-7.53a69,69,0,0,0-7.76-3.27C56.63,85,53.27,84.1,50,83.11c-2.51-.74-5-1.54-7.52-2.29C39.72,80,37,79.06,34.34,78.19a68.72,68.72,0,0,1-12.87-5.64,34.37,34.37,0,0,1-10.29-8.44,31.6,31.6,0,0,1-3.56-5,38.83,38.83,0,0,1-3.39-9A41.84,41.84,0,0,1,3.05,38.31a36,36,0,0,1,1.09-7.45,38.67,38.67,0,0,1,6.1-12.58A36.74,36.74,0,0,1,18,10.36a45.08,45.08,0,0,1,7-4.53c2.06-1,4.18-1.92,6.31-2.79s4.54-1.17,6.77-1.88A31.47,31.47,0,0,1,43.7.35a44.85,44.85,0,0,1,12,.1,79.52,79.52,0,0,1,8,1.49,92.47,92.47,0,0,1,9.07,3.12c2.85,1,5.68,2.35,8.92,2a4.55,4.55,0,0,0,4.07-2.82,2.7,2.7,0,0,1,2.56-1.15c.78.3.71,1,.71,1.73q0,16.37,0,32.73c0,.64.14,1.44-.77,1.46a1.64,1.64,0,0,1-1.76-1.09c-.88-2.08-1.51-4.25-2.25-6.36a74.85,74.85,0,0,0-4.69-10.91c-2.84-5.26-6.3-10-11.44-13.38A29.47,29.47,0,0,0,61.94,4c-1.58-.56-3.33-.91-5-1.32-3.48-.87-6.94-.66-10.42-.67a44,44,0,0,0-5.36.63c-1.86.22-3.56.89-5.34,1.27a17.71,17.71,0,0,0-4.57,1.86,31.64,31.64,0,0,0-8.14,6A24.62,24.62,0,0,0,18.24,19a18.15,18.15,0,0,0-1.5,9.57,19.57,19.57,0,0,0,6.44,12.22,38.68,38.68,0,0,0,9.46,6.09c2.56,1.23,5.26,2.18,7.91,3.22,3.12,1.23,6.34,2.13,9.51,3.14,2.4.77,4.82,1.6,7.3,2.2a57.5,57.5,0,0,1,5.91,2c1.51.55,3.09.94,4.56,1.54,1.7.69,3.41,1.36,5.11,2.07a76.82,76.82,0,0,1,8.73,4.3,35.6,35.6,0,0,1,7.11,5.17,33.74,33.74,0,0,1,5.69,6.58A38.66,38.66,0,0,1,98,84.5a35.68,35.68,0,0,1,1.54,9.89c.09,2.47-.08,4.92-.12,7.37a16.7,16.7,0,0,1-1,5.16c-.48,1.37-.67,2.8-1.26,4.16-.78,1.81-1.5,3.65-2.42,5.4a43,43,0,0,1-5,7.54c-1,1.25-2.24,2.34-3.3,3.55a33.46,33.46,0,0,1-5.32,4.5,57.07,57.07,0,0,1-6.29,4c-1.81,1-3.83,1.57-5.58,2.69a8.76,8.76,0,0,1-2.2.67c-3.05,1-6.21,1.61-9.35,2.32-5.9,1.33-11.82.44-17.72.67-1.6.06-3.18-.8-4.84-.88a47.92,47.92,0,0,1-5.42-1c-1.52-.26-3-.81-4.56-1.11-2-.37-3.78-1.19-5.74-1.55a55.41,55.41,0,0,1-5.75-1.66,15.6,15.6,0,0,0-6.67-.66A5.24,5.24,0,0,0,3,138.64c-.26.51-.35,1.11-1.17,1.16-1.69.09-1.84,0-1.84-1.72V99.35A2.82,2.82,0,0,1,.17,97.92Z"/><path class="cls-1" d="M485.58,20h2.6c0,1.36,0,2.67,0,4s.42,1.74,1.78,1.62c.36,0,.71-.08,1.07-.09,1.6,0,2-.43,2.06-2.09,0-1.07,0-2.15,0-3.23,0,0,0-.07.1-.17h2.25c0,1.39,0,2.81,0,4.22,0,.93.25,1.28,1.25,1.59,2.13.67,4.36.94,6.42,1.73,2.29.87,4.6,1.66,6.94,2.35A3.37,3.37,0,0,0,514,28.23a1.64,1.64,0,0,1,2-.85c.66.19.63.82.63,1.37q0,9.6,0,19.18c0,.62-.13,1.28-.72,1.34a1.35,1.35,0,0,1-1.52-.82c-.89-2.16-1.83-4.31-2.83-6.42a34.73,34.73,0,0,0-3.64-6.17,20.93,20.93,0,0,0-6.24-5.76,13,13,0,0,0-5.2-2c-.79-.07-1,.26-1,1q0,12.94,0,25.9c0,1.08.69,1.52,1.58,1.8a97.67,97.67,0,0,1,10.79,3.89,29,29,0,0,1,9.94,7.11,15.62,15.62,0,0,1,3,4.48c1.42,3.67,2.53,7.51,2,11.49a28.67,28.67,0,0,1-1.59,6.72,24.91,24.91,0,0,1-7.65,10.15,29.35,29.35,0,0,1-5.61,3.5,41.65,41.65,0,0,1-8.62,2.9,10.85,10.85,0,0,1-3,.58c-.68,0-.86.55-.85,1.18,0,1.36,0,2.72,0,4.08,0,.48-.07,1-.55,1.08s-1.25.3-1.71-.12a1.41,1.41,0,0,1-.24-1.27,8.75,8.75,0,0,0-.1-3.77,1.64,1.64,0,0,0-1.42-1.18h-.11c-3.29-.06-3.26-.21-3.17,2.89,0,.84,0,1.68,0,2.52,0,1-.64,1-1.38,1s-1.24-.16-1.23-1c0-1.48-.06-3,0-4.44a1.52,1.52,0,0,0-1.48-1.8,32.76,32.76,0,0,1-5.5-1.15c-1.61-.44-3.25-1-4.85-1.34-1.92-.37-3.69-1.45-5.71-1.27-.78.07-1.54-.11-2.32-.08a2.81,2.81,0,0,0-2.38,1.48c-.26.36-.48.8-.91.92-1.21.34-1.58,0-1.58-1.34V81.76a3.07,3.07,0,0,0,0-1c-.23-.67-.1-1.16.6-1.36a1.27,1.27,0,0,1,1.62.66,15.88,15.88,0,0,1,1.42,3.16,29,29,0,0,0,2.32,5.21,36.08,36.08,0,0,0,4.16,7c2.62,3.34,5.44,6.42,9.47,8.19,1.15.51,2.35.87,3.48,1.43s1.65.07,1.66-1.13c0-9.39,0-18.78,0-28.17,0-1.56-1.22-1.64-2.07-2-3.53-1.41-7.18-2.51-10.53-4.41a23.72,23.72,0,0,1-5.93-4.68,21,21,0,0,1-3.91-6.57,18.2,18.2,0,0,1-1.11-7.07,18.39,18.39,0,0,1,1-7.2c.71-1.67,1.28-3.43,2.12-5a18.91,18.91,0,0,1,2.28-3.16,24.15,24.15,0,0,1,7.37-6.08,37.07,37.07,0,0,1,5.21-2.36c1.55-.53,3.25-.46,4.69-1.35a1.37,1.37,0,0,0,.82-1.39C485.54,23,485.58,21.53,485.58,20Zm10.75,59.73c-.07.13-.1.16-.1.2q0,12-.05,24.07c0,.79.41,1,1.07.84a20.54,20.54,0,0,0,2.71-.91,10.46,10.46,0,0,0,5-4.18,15.26,15.26,0,0,0,2-8.34,9.32,9.32,0,0,0-2.39-6.55,18.67,18.67,0,0,0-6.21-4.35C497.74,80.16,497.23,79.39,496.33,79.68ZM484.91,51.89V28.67a36.75,36.75,0,0,0-3.85,1.51A11.06,11.06,0,0,0,474.85,38a9.81,9.81,0,0,0,.68,6.52C477.44,48.43,481.07,50.2,484.91,51.89Zm7.92-10.46c0-3.8,0-7.59,0-11.39,0-3.1-.31-2.73-2.67-2.72-1.62,0-1.95.33-1.95,1.95q0,11.21,0,22.41c0,2,0,2.06,1.87,2.7a11.55,11.55,0,0,1,1.11.43c1.26.58,1.62.36,1.63-1Zm-4.31,49.34c0,4.39,0,8.79,0,13.18a1.44,1.44,0,0,0,1.51,1.7c.36,0,.73,0,1.08,0,1.12.16,1.52-.4,1.52-1.44V78.6c0-.41,0-.86-.38-1.07a14.06,14.06,0,0,0-2.29-1c-1.09-.32-1.42,0-1.42,1.18C488.51,82.06,488.52,86.41,488.52,90.77Z"/><path class="cls-1" d="M184.39,118.51c.67-.07,1.14.38,1.82.21a6.81,6.81,0,0,1-.89,3.26,51.57,51.57,0,0,1-2.49,5.27,29.67,29.67,0,0,1-8,8.92,33.78,33.78,0,0,1-10,4.69,51,51,0,0,1-15,1.65c-2.21,0-4.27-.73-6.42-.92-1.84-.16-3.58-.81-5.41-1.08a21.17,21.17,0,0,1-3.48-1.08,51.42,51.42,0,0,1-5.55-2.17,47.52,47.52,0,0,1-8-4.59,35.62,35.62,0,0,1-7.71-7.45,37.12,37.12,0,0,1-4.3-7.31,27.15,27.15,0,0,1-2.17-5.77c-.42-2.3-1.36-4.5-1.25-7,.1-2.08-.56-4.19-.46-6.27a46.4,46.4,0,0,1,1.43-10,46.85,46.85,0,0,1,17.72-25.26,40.35,40.35,0,0,1,6.65-3.87,46.13,46.13,0,0,1,10-3.45c2.27-.47,4.51-1.24,6.89-1,1.48.18,2.95-.3,4.42-.21,2.59.14,5.21,0,7.76.31A35,35,0,0,1,166,56.78c1.34.42,2.7.78,4,1.28,4.63,1.76,8.81,4.24,11.69,8.37a14.36,14.36,0,0,1,2.88,8.78c-.07,2.25.14,4.52-.82,6.66a8.36,8.36,0,0,1-4.14,4.19c-3.5,1.7-7.26,1.13-10.9,1a8,8,0,0,1-6.43-3.25,7.09,7.09,0,0,1-1.15-6.4c.82-2.46,1.12-5,1.9-7.5a16,16,0,0,0,.71-4.17c.12-2.79-1.28-4.88-3.55-6.49-2.08-1.47-4.48-1.74-6.85-2.16-3.21-.57-6.27.27-9.25,1.25a15.41,15.41,0,0,0-6.82,5.1A24,24,0,0,0,133,72.18c-.59,2-.84,4.17-1.36,6.19-1.09,4.18-.65,8.43-1.11,12.63a76.42,76.42,0,0,0,0,13.53c.18,2.73.3,5.45.46,8.18.09,1.71.66,3.39.83,5.11s.94,3.3,1.11,5.05a14.06,14.06,0,0,0,1.12,3.31,25.18,25.18,0,0,0,2.16,4.39,19.32,19.32,0,0,0,8.31,7.78,22.66,22.66,0,0,0,7.29,2c3.13.29,6.19-.12,9.28-.17a17,17,0,0,0,4.3-1.14,23.47,23.47,0,0,0,4.76-2.18,30.18,30.18,0,0,0,9.37-8.41,39.7,39.7,0,0,0,3.63-6.28A35,35,0,0,0,184.39,118.51Z"/><path class="cls-1" d="M313.37,2.45c8.19.43,13.51,6.08,13.43,13.57-.08,7.32-5.17,13-13.41,13.07a12.89,12.89,0,0,1-13.31-13.2C300.09,8.26,305.68,2.86,313.37,2.45Z"/></g></g></svg>