<svg xmlns="http://www.w3.org/2000/svg" viewBox="0 0 373.48 367.34"><g id="Layer_2" data-name="Layer 2"><g id="Layer_1-2" data-name="Layer 1"><path d="M79.73,43.72l-2-4.24.34-.4,5.16,3.05c.38-1.33.79-2.78,1.19-4.23a27.86,27.86,0,0,1,.89-3.16c.84-2,2.62-2.57,4.58-2.91a6.7,6.7,0,0,0,2.5-.82c2.82-1.78,6.11-1.89,9.2-2.64s6.21-1.26,8.93-3.31a6.71,6.71,0,0,1,4.84-.89c1.11.23,1.93,1.89,2.86,2.92a3.39,3.39,0,0,1,.29.57c1.53,2.68,1.51,2.6,4.46,1.62q5.65-1.86,11.39-3.42a3.7,3.7,0,0,1,2.28.57c.72.37,1.3,1,2.13,1.39-.41-.77-.8-1.54-1.23-2.3a1.6,1.6,0,0,1,.83-2.47c2.48-1.17,5-2.23,7.51-3.31,3.3-1.42,6.79-1.29,10.29-1.42,4.43-.17,8.85-.72,13.25-1.27,1.06-.13,2.33-.32,2.56-2.05.19-1.47-.54-1.65-1.46-1.54-3.09.36-6.24.58-8.89,2.52a7,7,0,0,1-1.74.53c.38-1.14.55-1.93.88-2.65.88-1.9,1.82-3.79,2.75-5.67a8.37,8.37,0,0,1,3.58-3.88c1.92-1,3.88-1.92,5.77-3C176-.39,179.31-.14,182.6.4c4.85.8,9,3.33,13.05,5.91a97.61,97.61,0,0,1,8.57,6.2c1,.81,1.62,2.15,2.55,3.43.36-.48.6-.79.82-1.1s.47-.7.7-1.05c.38.27,1,.45,1.09.81.91,2.69,1.71,5.41,2.56,8.12.29.91.62,1.82,1.06,3.1,1.05-2.62,1.11-2.78,3.21-1.85,4.28,1.9,8.6,3.77,12.66,6.08,1.67.95,2.68,3,4,4.57a4.47,4.47,0,0,0,1.39,1.22c1,.47,2,.17,1.83-1.06a61.69,61.69,0,0,0-1.32-7.28c-.38-1.52-1.25-2.92-1.7-4.43-.18-.6-.08-1.74.3-2a2.46,2.46,0,0,1,2.11.13c2.95,1.72,5.61,3.85,7.11,7A19.94,19.94,0,0,1,243.75,33c.44,2.17.8,4.36,1.26,6.53a4,4,0,0,0,.85,1.67,1.22,1.22,0,0,0,1.17.12c1.62-2,3.17-4.05,4.81-6.2,2.11.11,4.34,3.39,3.33,5.5a5.59,5.59,0,0,0,0,4.43c.26.8.66,1.08,1.39.66,1.36-.78,2.74-1.54,4-2.42,2.31-1.56,4.67-2.54,7.33-.94.5.29,1.19.86,1.19,1.29,0,2.88,1.63,5.06,3.11,7.19,3.41,4.89,7.11,9.57,10.6,14.4,1,1.45,2.53.94,3.76,1.12a25.23,25.23,0,0,1,10.67,4.2c5.64,3.88,11.13,8,16.55,12.19a23,23,0,0,1,6.79,9,53.28,53.28,0,0,0,5.64,8.76,25.71,25.71,0,0,1,4.71,9.6c.71,3.35,3.15,5.13,5.59,7,3.72,2.84,7.8,5.28,10.7,9.06a48.28,48.28,0,0,1,3.29,5.4c1,1.74,4.34,2.69,5.41,1.1a4.1,4.1,0,0,0,.64-1.54c.35-1.84.62-3.7,1-6.1,1.88,1.85,3.39,3.41,5,4.89a28.16,28.16,0,0,1,5.83,6.82,25.92,25.92,0,0,1,2,4.05,2.75,2.75,0,0,1-.56,2.16c-1.41,1.84-2.83,3.78-5.76,3.69a5.44,5.44,0,0,0,2.49,4.08c2,1.21,4,2.26,5.89,3.62a2.7,2.7,0,0,1,.69,3.46c-.31.56-1.5.87-2.28.87a8,8,0,0,1-2.37-.82,143.7,143.7,0,0,1-18.41-8.46c-5.61-2.92-11.19-5.94-16.93-8.6-4-1.89-8.33-3.25-12.5-4.87-1.86-.72-3.74-1.27-5.15-2.93a6.44,6.44,0,0,0-3.24-1.83,32.62,32.62,0,0,1-10-4.26,33.1,33.1,0,0,0-7.09-3c-1.67-.57-3.14-1-3.73-3-.27-.91-1.17-1.61-1.72-2.45-.72-1.11-2-1.78-2.15-3.41-.05-.58-1.36-1.33-2.21-1.53a8,8,0,0,1-5.09-3.31c-1.11-1.56-3-2.59-4.45-3.9-2.68-2.36-5.31-4.78-8-7.12-.71-.6-1.84-.79-2.4-1.47-2.59-3.12-6.44-3.07-9.85-4.09-2.68-.81-5.41-1.5-8.16-2-3.88-.78-7.79-1.39-11.68-2a44.41,44.41,0,0,0-6.42-1,47.37,47.37,0,0,0-8.16.56c-2.89.45-5.71,1-8.66.61-.86-.11-1.81.63-2.71.62-1.48,0-1.2,1.19-1.66,1.91a6.63,6.63,0,0,1-1,1.07,8.57,8.57,0,0,1-.92-1,9.22,9.22,0,0,1-.61-1.33c-1.45,1.87-2.85,3.7-4.3,5.5-1.29,1.62-1.32,1.6-3.4.87-.46,1.56-.93,3.11-1.37,4.67a6.89,6.89,0,0,1-.28,1.23,16.44,16.44,0,0,1-1.16,1.74l-1-1.52c-.41-.65-.83-1.29-1.24-1.93l-.5.17c.26,1.3.49,2.6.78,3.89s.4,2.22-1,3l-1.26-1.64c-.18.13-.34.18-.34.24.08,2.38-1.34,3.38-3.43,3.93a34.36,34.36,0,0,0-4.47,1.57,1.94,1.94,0,0,0-.85,1.17,13.79,13.79,0,0,0-.37,2.15l-2-.89a5.19,5.19,0,0,0-.65-.21c0,.59-.18,1.18,0,1.55.84,1.48.53,2.3-1.26,2.37.31.66.6,1.17.8,1.72s.28,1.15.42,1.72c-.69.15-1.36.35-2,.43a6.53,6.53,0,0,1-1.39-.15,3.93,3.93,0,0,1,.35.72c.15.59.27,1.18.4,1.77l-1.75,0a7.88,7.88,0,0,0-2.81.34,4.48,4.48,0,0,1,.89.4c.81.58.91,1.15-.11,1.64a10,10,0,0,1-1,.5c-1.16.43-1,1-.28,1.75.43.41.85.84,1.55,1.53l-7,1.9,1.25,1.73-2.47.78c.89.35,1.41.56,2,.76.85.32,1,.88.19,1.3a10.36,10.36,0,0,1-2.67.75,9.46,9.46,0,0,1-1.7,0c1.08,3.13-2.37,2.42-3.26,3.9,1.35,1.79,2.44,2.12,4.48,1.62a10.41,10.41,0,0,1,2.84-.26,4.11,4.11,0,0,1,1.4.65c-.32.43-.55,1-1,1.27-1.6.91-3.32,1.6-4.88,2.57-2,1.24-2.24,2.31-1.32,4.37a21.14,21.14,0,0,0-3.07,1.11,9.16,9.16,0,0,0-2,1.69c-1,.93-1.91,1.87-2.82,2.86a13.27,13.27,0,0,0-1,1.79,34.88,34.88,0,0,0,4.16,0c.92-.12,1.6,0,1.59.93,0,.37-.84.79-1.35,1.07a3.65,3.65,0,0,1-1.12.19l-.13.49,3.39,1.9c-4.32,1.24-8.36,1.79-12.13,4.3h5.58c.94,3.88.16,5.36-3.17,7a10.79,10.79,0,0,0-5,4.46c-1.26,2.35-3.63,3.32-5.55,4.85-.26.21-1.18-.21-1.68-.52a27.84,27.84,0,0,0-2.77-2c-.5-.23-1.3.19-2,.32l1.1,1.8a18.42,18.42,0,0,1-2.29,1.69c-2.16,1.2-4.42,2.24-6.58,3.46-.89.5-1.79,1.18-1.09,2.55.15.31-.21,1-.54,1.37a1.27,1.27,0,0,1-1.19-.12c-1.38-2.84-3.83-2.14-5.74-1.32a14.07,14.07,0,0,1-5.23.88c-.31,0-.62.07-1,.11-.28,1,.14,1.53,1.09,1.38,1.92-.32,3.82-.82,5.74-1.08.61-.08,1.75.22,1.83.54a2.39,2.39,0,0,1-.52,2c-1.82,1.5-3.79,2.8-5.66,4.32,1.07-.52,2.16-1,3.2-1.58,6-3.26,12.06-6.56,18.11-9.79a8.48,8.48,0,0,1,2.29-.4c-1,2.8-3.1,3.74-5,4.9-3.28,2-6.49,4.11-9.81,6-2,1.14-4,2-6.07,3a2.27,2.27,0,0,0-1.49,2.66c.1,1.77.24,2.95,1.74,3.89a3.11,3.11,0,0,1-.79,1.63c-1.33.94-2.85,1.61-4.18,2.55-1.92,1.38-3.73,2.9-5.59,4.37-.16.13-.43.37-.39.48.62,1.88-1.32,2.69-1.71,4.14,1.25,1.79,1.06,2.44-.85,3.38a3,3,0,0,0-1.3,1.25c-2.06,4-3.91,8.16-6.1,12.11-1.46,2.64-1,5.27-.54,7.88.86,4.57,1.84,9.13,3.09,13.6,1.38,4.92,3.19,9.72,4.65,14.61.84,2.83,1.41,5.75,2,8.64.2.93.07,1.92.26,2.85.22,1.1-.17,2.65,1.86,2.67.49,0,1,.84,1.46,1.38a12.78,12.78,0,0,0,5.7,4.05,5.64,5.64,0,0,1,2.23,2.26,42.94,42.94,0,0,1,2,4.07c.45.93,1.08,1,1.68.21.83-1.13,1.54-1.06,2.4,0,1.28,1.51,2.63,3,4,4.55l-.22-1.54.31-.35a5,5,0,0,1,1.34,1c1.39,2.11,2.7,4.27,4,6.42,1.31-1.28,1.93-1.25,3,.15,1.91,2.46,3.84,4.9,5.71,7.39.69.91,1.26,1.32,2.08-.32.62,1,1.39,1.63,1.51,2.4.5,3.35,2.89,5.5,4.91,7.8,3.45,3.91,7.08,7.68,10.77,11.37s7.32,7,11,10.45,7.45,7,11.15,10.56c1.33,1.27,2.59,2.62,3.79,4a5.45,5.45,0,0,1,.67,1.66,5.37,5.37,0,0,1-1.58.47,17.57,17.57,0,0,1-3.92-.43c-1.35-.36-2.74-.77-3.48-2.25-1.47-2.93-4.38-4-7.11-5.25-3.32-1.49-6.65-3-10-4.32-3.62-1.47-7.37-2.65-10.93-4.24-5-2.2-9.79-4.65-14.67-7-4.55-2.21-9-4.56-13.65-6.66-6-2.75-12.32-5.05-18.23-8.06-7-3.53-13.22-8.22-17.75-14.72a30.48,30.48,0,0,1-3.46-7.45A5.7,5.7,0,0,0,75.8,303c-2.84-1-2.79-1.12-1.55-3.8A5.83,5.83,0,0,0,74.5,298l-5.89.92c-.27-1.88-.51-3.52-.81-5.57-1.6,1.53-2.71,2.87-3,4.7,0,.35.5.75.66,1.17.23.6.69,1.51.45,1.82a5.23,5.23,0,0,1-2.33,1.7,2.19,2.19,0,0,1-1.82-.89,7.23,7.23,0,0,1,.74-8.5,52.09,52.09,0,0,0,3.15-4.57,1.49,1.49,0,0,0,0-1.25c-3.32,2.7-6.55,5.52-10,8.05a14.37,14.37,0,0,1-5,2.18c-1.57.38-2.66-1.08-2.54-2.95.06-1,.16-1.94.22-2.63l-4.23-1.08L51,282.42l-.29-.32c-1.74.82-3.19.11-4.57-.8-.74-.49-1.35-1.19-2.09-1.69-1.81-1.22-1.75-3.09-1.88-4.94a14.4,14.4,0,0,0-.41-2.33,1.71,1.71,0,0,0-2-1.53c-2.32.07-3.17-.66-3.9-3.14-.69-2.29-1.81-4.54-.91-7.06.07-.21-.52-.81-.92-1a28.29,28.29,0,0,1-8.93-6.43c-.9-1-.56-1.46.56-1.72.47-.11.95-.15,1.4-.28,1.13-.33,1.3-1,.53-1.94s-1.34-1.63-1.94-2.49c-.8-1.15-1.42-2.37-.3-4.06-2,.63-2.76-.71-3.42-1.7-1.5-2.22-2.78-4.6-4.07-6.95a4.33,4.33,0,0,1-.14-1.63,4.23,4.23,0,0,1,1.62.19c1.89,1.11,3.71,2.36,5.58,3.51,2.85,1.74,5.71,3.42,9.25,3.35,2.29-.05,5.56-3,5.65-5.22.14-3.39,1.8-4.84,5.18-4.56a4.84,4.84,0,0,0,.94-.14c-1.51-1.63-2.82-3.1-4.21-4.5-3.63-3.67-7.39-7.22-10.93-11-2.67-2.83-5-6-7.62-8.86-2.4-2.64-5.09-5-7.44-7.72a34.94,34.94,0,0,1-5.95-8.7c-1.57-3.56-3.59-6.93-5.43-10.38C2.14,174.2,0,169.9,0,165a31.46,31.46,0,0,1,.89-6.73c1-4.78,2.1-9.56,3.37-14.29,1.22-4.58,2.62-9.12,4.08-13.63,1.64-5.06,3.35-10.09,5.19-15.08,1.24-3.36,2.67-6.67,4.18-9.92,1.89-4.06,3.78-8.14,6-12a74.53,74.53,0,0,1,6-8.7c3.63-4.7,7.27-9.42,11.2-13.86,4.68-5.28,9.52-10.43,14.58-15.34a21.92,21.92,0,0,1,10.7-5.91,16.38,16.38,0,0,0,2.49-.4c.88-.34,1.6-1.1,2.48-1.45a24.55,24.55,0,0,1,3.68-1c.33-.08.72.15,1.09.18,1.86.17,2.09-.14,1.43-1.87a12.31,12.31,0,0,1-.53-1.66,6.33,6.33,0,0,1,0-1.23c.42.16.94.21,1.22.5a10.87,10.87,0,0,1,1.17,1.7Zm3.92,112.62c.27,1.66,1.91,2.42,3.9,1.72A56.87,56.87,0,0,1,98.16,155c6.6-.94,13.15-2.16,19.74-3.19,4.49-.71,9-1.23,13.48-1.95,1.77-.28,3.49-.89,5.24-1.35l-.1-.58a8.4,8.4,0,0,0-1.42,0c-3.68.67-7.33,1.56-11,2-4.5.55-9,.61-13.55,1.09-3.83.41-7.65,1-11.41,1.74-1.88.38-3.57,1.66-5.44,2.06C90.37,155.51,87,155.85,83.65,156.34ZM82.26,101l.1-.21a29,29,0,0,0-2.71-1.4c-2.78-1.09-5.47-2.4-8.6-2.43a19.63,19.63,0,0,1-4.56-1c-1.08-.28-2.36-1.19-3.15-.86a4.94,4.94,0,0,1-3.63,0,2.29,2.29,0,0,0-3.08,1.29L70.84,102l.15-.37-2.64-3.06c3.81-.51,6.29,1.61,9.23,2.93-.11-.69-.18-1.08-.29-1.77Zm-13,8.34a13,13,0,0,1-.11-2.08c0-.16.62-.44.89-.38,1.94.45,3.86,1,5.79,1.47l8.67,2.23c0-.8-.11-1.34-.44-1.57a48.81,48.81,0,0,0-5-3.2,6.36,6.36,0,0,0-3-.63c-1.61,0-3.23.51-4.82.4-2.92-.19-5.81-.68-8.69-1a5.05,5.05,0,0,1,.07,1.86c-.45,1.26.19,1.71,1.17,1.92C65.61,108.74,67.48,109,69.23,109.36Zm-.84,40.89,0,.64a47.42,47.42,0,0,0,24.91,1.66l0-.69Zm34.85,27.86a8.8,8.8,0,0,1-.63-1.92c-.13-1.39-.82-1.56-2-1.38a21.44,21.44,0,0,1-4.59.31c-2.73-.16-5.44-.58-8.17-.79a6.26,6.26,0,0,0-1.86.49c.42.61.81,1.25,1.28,1.82.13.16.5.12.76.15,2.41.27,4.82.62,7.24.76a7.1,7.1,0,0,0,3.09-.53C100.87,175.91,101.25,175.94,103.24,178.11Zm-16.55,7.6.06.52a20.71,20.71,0,0,0,4.18.53c3.16-.22,6.31-.68,9.45-1.12.4,0,.73-.55,1.09-.84-.41-.25-.81-.73-1.21-.73-1.31,0-2.62.25-3.94.29-1.57,0-3.51,1.29-4.32-1.33Zm169.91-119c1.63,4.34,3.06,4.43,6.3,3.17C261.77,67.13,258.91,65.65,256.6,66.74ZM165.88,39.6l-.46.63,6.24,6,2.09-1.69ZM83.79,307l.52-.05c1.3-2.15,1-6.07-.52-7.18Z"/><path d="M297.94,245.34a33.39,33.39,0,0,1,0,3.61,7.23,7.23,0,0,1-.81,1.92,7,7,0,0,1-1.68-1.39c-1.76-2.78-1.86-5.92-2-9.1a60.22,60.22,0,0,1,1.09-14.94c.88-4.1,2.14-8.11,3.26-12.27-1.38,2-3.3,3.67-3,6.45a1.73,1.73,0,0,1-.14.77c-1.28,3.26-2.57,6.52-3.84,9.79-.12.32-.3.89-.18,1,1.32,1.07.17,1.72-.26,2.65-1.07,2.33-1.93,4.76-2.86,7.15-.1.24-.07.56-.22.74-.62.73-1.18,1.8-2,2-1.1.32-1.87-.66-2.36-1.7a12.07,12.07,0,0,0-1.23-2,4,4,0,0,0-.9-.7,3.28,3.28,0,0,0-.54,1c-.16,1.25-.17,2.53-.34,3.78-.28,2.19-2.24,3.07-3.9,1.74a3,3,0,0,1-.79-1.45c-.77-2.58-1.4-5.21-2.27-7.76-.81-2.39-1.86-4.71-2.8-7.06-.08-.2-.26-.42-.22-.59.67-3.08-.85-5.88-1.08-8.85-.2-2.53,1-4.36,2.66-6,1.13-1.1,2.37-2.1,3.46-3.23a2.12,2.12,0,0,0,.32-1.42,12.08,12.08,0,0,0-.29-2.15c-.35-1.85.92-2.66,2.23-3.31,3-1.47,4.82-3.56,4.89-7.1,0-.83,1.27-1.57,1.78-2.46a28.09,28.09,0,0,0,1.91-4c.13-.35-.21-1-.51-1.38-1.19-1.43-1.24-2-.09-3.59,1.64-2.19,3.4-4.3,4.88-6.6,1.65-2.55,3.05-5.27,4.53-7.94,1.4-2.5,2.66-5.12,5.84-5.79-.31-1.82-.11-2.09,2.49-3,3.53-1.25,7.11-2.35,10.6-3.7,3.05-1.18,6-2.64,9-4,.51-.22,1.06-.33,2.13-.65l-1.53,4c.74,0,1.5,0,2.27,0,1.83.08,3.66.14,5.48.3,1.51.14,2.84,2.51,2.23,4q-3,7.29-6.16,14.54a10.55,10.55,0,0,1-1.47,2.26c-1.14,1.44-2,1.5-3.59.6-.42-.24-1.07-.08-1.62-.08-.08,0-.14.19-.23.21-2.95.82-4.26,2.87-4.7,5.81-.13.88-1.1,1.64-1.71,2.43-1.56,2-3.16,3.91-4.67,5.92a3.25,3.25,0,0,0-.3,1.5c-.16,1.2-.46,2.23-1.81,2.72a2.93,2.93,0,0,0-1.47,1.29c-.79,1.45-1.42,3-2,4.31,1.25-1.16,2.59-2.49,4-3.71,4.1-3.54,8.21-7.08,12.38-10.54,1.44-1.19,2.95-2.62,4.67-3.11a78.08,78.08,0,0,1,9.42-1.58,17.71,17.71,0,0,1-1.07,9.7,16.83,16.83,0,0,1-.91,2.19,6.42,6.42,0,0,1-7.24,3.11,4,4,0,0,0-2.22.59,46.43,46.43,0,0,0-5.17,2.75,28,28,0,0,0-10.58,12.07,6,6,0,0,0-.4,2c-.22,2.69-.08,2.76,2.44,1.76a1.82,1.82,0,0,1,1.48.16,13.39,13.39,0,0,1,5,5.83,4.28,4.28,0,0,1-.4,3.31c-2.48,4-5.2,7.79-7.75,11.72a19.26,19.26,0,0,0-2.14,4.19,7.19,7.19,0,0,1-3.25,3.89c-.8.5-1.35.41-1.8-.47s-.92-1.61-1.39-2.41Zm6.67-21.19a7.87,7.87,0,0,0-1.21,1.94,3,3,0,0,0,.38,1.73,1,1,0,0,0,.77.29A7.54,7.54,0,0,0,306,226C306.21,225.17,306.12,224.22,304.61,224.15Z"/><path d="M196.23,312.26c.56.79.89,1.24,1.37,1.9-1.52.56-2.9,1-4.23,1.59a12.22,12.22,0,0,0-2.15,1.26,1.44,1.44,0,0,0-.32,2.42c.1.11.3.21.31.33s0,.69-.09.73c-1.72.73.17,3.16-1.85,3.81-1.08.35-2.29.86-1.19,2.52.22.34-.39,1.32-.75,1.92-.48.79-1.11,1.5-1.69,2.27,2.28,1.18,2.28,1.18,2.22,3a2.1,2.1,0,0,0,.47.29c1.47.53,2.87.93,3,3,.07.81,1.27,1.54,2,2.28.37.37,1.09.66,1.13,1.05a17.81,17.81,0,0,1-.08,3.09,6.26,6.26,0,0,1-2.13-.41,8.38,8.38,0,0,1-2.09-1.9,3.54,3.54,0,0,0-3.12-1.37c-1,0-1.94-1.18-2.92-1.81-.52-.32-1.09-.56-1.61-.89a24.59,24.59,0,0,1-4.4-2.89c-3.55-3.5-6.39-7.54-7.38-12.52-1-4.8-2.07-9.6-1.86-14.56,0-.58-.17-1.16-.16-1.73,0-2.54.29-5,3.57-5.73l1.58,2.21.35-.68c.73-1.35.94-3,3.35-2.62,1.73.28,2.73-1.44,3.36-2.91s1.71-1.73,2.89-2.23,2.52-1.38,3.84-1.93,2.7-.91,4.06-1.35c-1.55-1.38-.11-1.81,1-2.62,3.92-2.81,8.37-3.88,13-4.4a2.56,2.56,0,0,1,1.41,0c2.5,1.43,3.83-.3,5.34-1.8A74.2,74.2,0,0,1,225,271.07a1.82,1.82,0,0,1,1.65.28c.41,1.27,1.29.83,2.05.72a3.7,3.7,0,0,0,1.32-.49c1.88-1.09,3.72-.22,5.57.06a1.14,1.14,0,0,1,1,1.63c-.61,1.52-1.39,3-2.16,4.61,1.44.38,3.16.85,4.9,1.26,2.18.52,2.67,1.09,2.86,3.24a20.12,20.12,0,0,1,3.55.37c.58.17,1.38,1,1.36,1.47a2,2,0,0,1-1.42,1.41c-1.37.08-2,.82-2.94,1.73a27.25,27.25,0,0,1-5.48,3.94c-2.64,1.53-5.37,2.91-8.14,4.19s-5.61,2.42-8.44,3.56c-2.64,1.07-5.34,2-7.95,3.13a8.65,8.65,0,0,0-2.45,2c-1.07,1.09-1.91,2.47-3.78,2.12-.23,0-.74.27-.75.44-.09,1.6-1.53,1.57-2.48,2.06C201,310,198.64,311.08,196.23,312.26Z"/><path d="M209.12,343.47c-.47-1.8.92-2.58,1.64-3.61.44-.62,1.27-1,1.77-1.56a3,3,0,0,0,.76-1.74c-.06-2.37-.65-2.69-2.79-1.78a5.88,5.88,0,0,1-5.42-.57,4.12,4.12,0,0,0,.6-.93c.24-.76.77-1.7.52-2.27-1.08-2.43-.36-4.73,0-7.11.87-5.23,4.4-8.71,7.78-12.34a35.06,35.06,0,0,1,12.5-8.91c3.67-1.47,7.47-2.63,11.27-3.75,2.73-.8,5.53-1.36,8.33-1.9a7.73,7.73,0,0,1,3.25.23c-.65,1.43-1.88,1.74-3,2.06-4.54,1.23-9.11,2.33-13.64,3.6a29.88,29.88,0,0,0-10.49,5.65,70.87,70.87,0,0,0-10.67,11c-3,3.69-2.68,7.77-1.19,12.07,3.46-9.48,10.62-15.89,18.13-21.87,7.78-6.19,17-8.47,26.68-8.85l.33.63c-.38.34-.7.84-1.15,1-2.72.84-5.45,1.65-8.2,2.37-7.8,2.05-15,5.2-20.17,11.66a10.39,10.39,0,0,0-1.9,3.73c-.15.56.6,1.57,1.19,2.07a2.45,2.45,0,0,0,3.21.31c.34-.28.13-1.26.12-1.91s-.09-1.31-.15-2a7.38,7.38,0,0,1,2.09.31,14.86,14.86,0,0,1,3.23,1.89,5.68,5.68,0,0,1,1.15,2c.57,1.17,1.12,2.35,1.62,3.55a2.71,2.71,0,0,1,.21,1.43,7.12,7.12,0,0,1-3.9,5.07,7.82,7.82,0,0,0-2.29,1.57c-1.49,1.88-3.54,1.65-5.16,1-3.29-1.35-5.26.23-7.49,2.21a70,70,0,0,1-6.92,5A11,11,0,0,1,209.12,343.47Z"/></g></g></svg>