<svg xmlns="http://www.w3.org/2000/svg" viewBox="0 0 328.92 90.32"><defs><style>.cls-1{fill:#fff;stroke:#fff;stroke-miterlimit:10;}</style></defs><g id="Layer_2" data-name="Layer 2"><g id="Layer_1-2" data-name="Layer 1"><path class="cls-1" d="M115.27,2.49a1.37,1.37,0,0,1-.28-.33c-.19-.42,0-.81.48-.77.78.06,1.56-.09,2.34,0s1.58,0,2.37,0H136c.43,0,.9-.1,1.31.39,0,3,0,6.08,0,9.16V47.66a.7.7,0,0,0,.92.19.87.87,0,0,0,.12-.14c.13-.31.24-.63.37-1a17.52,17.52,0,0,1,1.49-2.55,19.3,19.3,0,0,1,4-4.39,13.78,13.78,0,0,1,1.95-1.3c.55-.34,1.12-.66,1.7-1a6.46,6.46,0,0,1,1.31-.54,20.45,20.45,0,0,1,3.35-.9c.57,0,1.13-.24,1.71-.32a12.9,12.9,0,0,1,1.63-.12c1,0,2.06,0,3.09,0a15.53,15.53,0,0,1,2.65.19,17.94,17.94,0,0,1,5.37,1.9,14.16,14.16,0,0,1,3.7,3.05,15,15,0,0,1,2.14,3.35c.19.4.36.81.54,1.22,0,.06,0,.12.07.19a19.59,19.59,0,0,1,.81,3.78,1.05,1.05,0,0,0,.07.5,5.63,5.63,0,0,1,.26,2.23V85.24c0,.34,0,.69,0,1a.6.6,0,0,0,.53.55,5.78,5.78,0,0,0,.72,0c1.64,0,3.29,0,4.94,0,.34,0,.68-.06,1-.08a2.19,2.19,0,0,1,.51,0,65.62,65.62,0,0,0,6.58.1c.82,0,1.07-.29,1.1-1.13,0-.24,0-.48,0-.72V39.72a8.8,8.8,0,0,0,0-1,.8.8,0,0,0-.67-.8,3.31,3.31,0,0,0-.7-.12q-2.78,0-5.55,0a5.71,5.71,0,0,0-.71.08c-.39,0-.59-.14-.63-.6a.48.48,0,0,1,.5-.52c.48,0,1,0,1.44,0H202.8l1.24,0a3.31,3.31,0,0,1,.16.64c0,.37,0,.75,0,1.13v46.4c0,.38,0,.76,0,1.13a.76.76,0,0,0,.78.8c.27,0,.55,0,.82,0h5c.28,0,.55,0,.83,0a.58.58,0,0,1,.59.76.46.46,0,0,1-.4.41,8.87,8.87,0,0,1-1,0H154.05a2.2,2.2,0,0,1-1.54-.27c0-.14.07-.3.1-.46a.52.52,0,0,1,.56-.48h5.46a5.62,5.62,0,0,0,.82,0,.89.89,0,0,0,.85-1c0-.34,0-.69,0-1q0-17.6,0-35.19c0-.85,0-1.71-.06-2.56a6,6,0,0,0-.08-.61c-.1-.57-.21-1.14-.3-1.71a6.67,6.67,0,0,0-.89-2.48,10,10,0,0,0-1.44-2,11.6,11.6,0,0,0-2.12-1.43.39.39,0,0,0-.19-.08,18,18,0,0,1-2.29-.51,2.51,2.51,0,0,0-.61,0c-.67.1-1.34.24-2,.37a2.75,2.75,0,0,1-.49.14A7.81,7.81,0,0,0,146,40.18a15.48,15.48,0,0,0-5.66,6.34A29.28,29.28,0,0,0,138.62,51c-.42,1.27-.47,2.61-.9,3.88a1.64,1.64,0,0,0-.05.5,37.3,37.3,0,0,1-.3,4.61c0,.27,0,.55,0,.82V85.37c0,.24,0,.48,0,.72a.66.66,0,0,0,.61.71,5.62,5.62,0,0,0,.92,0h5c.27,0,.54,0,.79,0a1.54,1.54,0,0,1,.29,1,2.81,2.81,0,0,1-.53.16c-.27,0-.54,0-.82,0H116.28c-.43,0-.9.12-1.28-.19a.89.89,0,0,1,0-.87,1.53,1.53,0,0,1,1-.16c1.89,0,3.77,0,5.66,0,1,0,1.47-.35,1.46-1.46,0-3,0-6.1,0-9.16V4.54a5.91,5.91,0,0,0,0-1c-.14-.86-.3-.92-1.1-1.12a1.86,1.86,0,0,0-.41,0h-5.35C116,2.38,115.66,2.45,115.27,2.49Z"/><path class="cls-1" d="M248.19,77.14l.86.43a1.43,1.43,0,0,1,0,1.13,7.44,7.44,0,0,0-.44,1.57,3.81,3.81,0,0,1-.45,1.13,12.61,12.61,0,0,1-3.88,5.3,9.85,9.85,0,0,1-2.35,1.41c-.5.2-1,.44-1.49.66a25.39,25.39,0,0,1-2.57.64c-.06,0-.14,0-.2,0a6.48,6.48,0,0,1-2.93.35h-1.44c-1.09,0-2.2.08-3.29,0a27.74,27.74,0,0,1-3.1-.59c-.57-.13-1.14-.19-1.7-.36a19.52,19.52,0,0,1-2.94-1.16,9,9,0,0,1-2.64-1.89A13.87,13.87,0,0,1,218.25,84a4.82,4.82,0,0,1-.47-1.12,12.36,12.36,0,0,1-.59-1.64,11.2,11.2,0,0,1-.24-1.92c-.34-5.72-.12-11.45-.15-17.17,0-7.48,0-15,0-22.43a5.19,5.19,0,0,0-.08-1.12.92.92,0,0,0-1-.85c-.41,0-.83,0-1.24,0-1.47,0-2.95,0-4.42,0a6.86,6.86,0,0,0-.91.12.36.36,0,0,1-.44-.33,6.11,6.11,0,0,1,0-.75,5.28,5.28,0,0,1,.62-.08l6,0c.24,0,.48,0,.72,0,.4,0,.53-.12.63-.54a5.2,5.2,0,0,0,.15-1.11c0-4.15,0-8.3,0-12.45,0-.37-.06-.75-.09-1.13a.32.32,0,0,1,.5-.15c.78.45,1.71.42,2.51.83a3.9,3.9,0,0,0,1.09.21,2.9,2.9,0,0,1,.6.12,4.16,4.16,0,0,0,1.71.25c.59,0,1.17,0,1.75,0a3.37,3.37,0,0,0,1.41-.22,1.81,1.81,0,0,1,.49-.14,4.54,4.54,0,0,0,2.07-.52,1.19,1.19,0,0,1,.49-.13,1.85,1.85,0,0,0,1-.28.6.6,0,0,1,.71,0v1.19q0,6.23,0,12.45a6.26,6.26,0,0,0,.15,1.21.52.52,0,0,0,.53.41h21.1c.63,0,.78-.14.91-.74a2.46,2.46,0,0,0,.07-.6q0-6.07-.06-12.14a6.92,6.92,0,0,0,0-1.64c0-.14.19-.33.34-.3a1.76,1.76,0,0,1,.39.12,2.11,2.11,0,0,0,1.07.31.51.51,0,0,1,.3.06,4.56,4.56,0,0,0,2.25.59.76.76,0,0,1,.21,0c1.38.6,2.84.23,4.26.31a2.55,2.55,0,0,0,.7-.17,1.8,1.8,0,0,1,.58-.16,5.21,5.21,0,0,0,2-.5c.13-.05.26-.15.38-.14a2.39,2.39,0,0,0,1.25-.39,1.62,1.62,0,0,1,.45-.09,2.53,2.53,0,0,1,.15.47c0,.31,0,.62,0,.93V35c0,.3,0,.61,0,.92a.73.73,0,0,0,.78.77c.28,0,.55,0,.83,0H282c.4.53.41.53.08,1.12-1.4-.11-2.79,0-4.19-.06s-2.74,0-4.12,0-2.81,0-4.22,0a4.21,4.21,0,0,0-1,.18.68.68,0,0,0-.47.62c0,.31,0,.62,0,.93V79.22a4.14,4.14,0,0,0,0,.61,19.52,19.52,0,0,1,.35,3,3.93,3.93,0,0,0,.5,1.44,5.51,5.51,0,0,0,2.73,3,5.44,5.44,0,0,0,2.15.56,7.58,7.58,0,0,0,3.53-.4c.82,0,1.37-.58,2-.94a8.71,8.71,0,0,0,1.71-1.44,12.24,12.24,0,0,0,2.65-4.11,24.49,24.49,0,0,0,1.14-3c.18-.66.31-.72.94-.52a4,4,0,0,1,.39.16A2.12,2.12,0,0,1,286,79a19.64,19.64,0,0,0-.7,2.13,12,12,0,0,1-.86,1.85,10.21,10.21,0,0,1-2.5,3.2,14.87,14.87,0,0,1-2.95,2,20.74,20.74,0,0,1-4.08,1.28c-.07,0-.15,0-.21,0a6.58,6.58,0,0,1-2.92.35h-4.64a4.68,4.68,0,0,1-.91-.09c-.8-.17-1.59-.43-2.39-.53s-1.32-.32-2-.42a2.34,2.34,0,0,1-.49-.16,15.66,15.66,0,0,1-1.8-.71A9.87,9.87,0,0,1,255.34,84,12.11,12.11,0,0,1,254,79.32c-.28-2.9-.26-5.81-.26-8.72q0-14.91,0-29.84c0-.54.05-1.09.07-1.63a1.49,1.49,0,0,0,0-.21,1.14,1.14,0,0,0-1.19-1.15c-.54,0-1.09,0-1.64,0-1.34,0-2.68,0-4,0a4.06,4.06,0,0,0-1.43.12.91.91,0,0,1-.61,0,4.72,4.72,0,0,0-1.63-.12H232.49c-.13,0-.27,0-.41,0-.64.08-1.07.35-1.08,1.12v.72q0,19,0,38.07c0,1.3.11,2.6.17,3.9a5.46,5.46,0,0,0,.51,2.17,13.68,13.68,0,0,0,.7,1.57,5,5,0,0,0,2,1.85,6.12,6.12,0,0,0,2.52.69,12.41,12.41,0,0,0,2.36-.12,7.6,7.6,0,0,0,3-1.19,9.48,9.48,0,0,0,2.38-2.22,17.89,17.89,0,0,0,1.29-2,14.77,14.77,0,0,0,1.37-3.28,12.72,12.72,0,0,0,.54-1.54C247.89,77.43,248,77.33,248.19,77.14Z"/><path class="cls-1" d="M56.26,24.64c-.4.42-.81.1-1.22.18-.28-.75-.59-1.42-.84-2.12a6.49,6.49,0,0,0-.89-2.37A6.52,6.52,0,0,0,52.88,19c-.23-.53-.4-1.07-.67-1.59s-.41-1.08-.65-1.6a21.52,21.52,0,0,0-1.5-2.9,11.62,11.62,0,0,1-.72-1.23A19.87,19.87,0,0,0,46.61,8a17,17,0,0,0-3.73-3.19,12.61,12.61,0,0,0-4.05-1.89,3.09,3.09,0,0,1-.57-.23,4.25,4.25,0,0,0-1.88-.44.78.78,0,0,1-.31,0,10.88,10.88,0,0,0-3.84-.44c-.55,0-1.1,0-1.65,0-1.14-.08-2.25.17-3.38.18a16.51,16.51,0,0,1-2.29.44,9.14,9.14,0,0,1-1.43.52A5.68,5.68,0,0,0,22,3.3,18.6,18.6,0,0,0,16.4,6.57,17,17,0,0,0,12.66,11a14.55,14.55,0,0,0-1.18,2.68,4.25,4.25,0,0,0-.12.6,2.92,2.92,0,0,1-.07.61A9.13,9.13,0,0,0,11,18.37a1.52,1.52,0,0,0,.12.5,2.93,2.93,0,0,1,.18.69,6.69,6.69,0,0,0,1,3A12.86,12.86,0,0,0,15,26a17.5,17.5,0,0,0,3.72,2.68,14.77,14.77,0,0,0,3.12,1.52,31.37,31.37,0,0,0,3.37,1.45,15.42,15.42,0,0,0,2,.67,1.49,1.49,0,0,1,.3.09,13.69,13.69,0,0,0,2.6.87c.57.2,1.16.36,1.73.6s1.37.41,2.05.62c.43.13.86.23,1.27.4a2.54,2.54,0,0,0,1.08.27.67.67,0,0,1,.4.07,17.68,17.68,0,0,0,3,1.05c.86.31,1.72.66,2.6.92.69.21,1.34.5,2,.75,1.15.43,2.26.94,3.4,1.41a33.94,33.94,0,0,1,4.07,2.09,24,24,0,0,1,4.91,3.66,23.13,23.13,0,0,1,3.19,3.73,16.63,16.63,0,0,1,1.94,3.83,10.15,10.15,0,0,1,.82,3.26.48.48,0,0,0,0,.2,5.67,5.67,0,0,1,.29,2.42A6.66,6.66,0,0,0,63,60.49a.81.81,0,0,1,0,.41A14.37,14.37,0,0,0,62.89,64a2.65,2.65,0,0,1-.19,1.11,2,2,0,0,0-.14.69,6.27,6.27,0,0,1-.5,2.09,1.69,1.69,0,0,0-.18.47,10.23,10.23,0,0,1-1,3c-.35.81-.72,1.61-1.13,2.39a32,32,0,0,1-2.13,3.38,24.2,24.2,0,0,1-2.6,3,17.49,17.49,0,0,1-2.43,2.19c-.91.65-1.77,1.38-2.73,2a29.59,29.59,0,0,1-4,2.22c-.69.29-1.35.64-2,1a.64.64,0,0,1-.19.08,18.24,18.24,0,0,0-3.09,1c-.25.1-.54.08-.8.16a18.3,18.3,0,0,1-3.11.57,3.26,3.26,0,0,0-1,.24,4.63,4.63,0,0,1-1.91.29q-3.81,0-7.62,0a5.5,5.5,0,0,1-1.61-.23,10.81,10.81,0,0,0-2.31-.43c-.83,0-1.59-.36-2.4-.43a13.37,13.37,0,0,1-2.07-.53,7.55,7.55,0,0,1-2-.54.14.14,0,0,0-.09,0A4.75,4.75,0,0,1,13.51,87a1.16,1.16,0,0,0-.4-.09,2.28,2.28,0,0,1-1.27-.35.75.75,0,0,0-.29-.09c-1.16-.1-2.19-.77-3.37-.79a6.29,6.29,0,0,0-2.82-.34,2.82,2.82,0,0,0-2.24,1,4.34,4.34,0,0,0-.74,1.1.89.89,0,0,1-1,.57c-.14,0-.28,0-.42,0a.47.47,0,0,1-.46-.46c0-.24,0-.48,0-.72v-24a1.55,1.55,0,0,1,.15-1,1.67,1.67,0,0,1,1.08-.06,3.7,3.7,0,0,1,.64,1.92,5.92,5.92,0,0,0,.28,1.08c.29.8.51,1.62.76,2.43a5.54,5.54,0,0,0,.17.58c.51,1.26,1,2.53,1.56,3.76a33.5,33.5,0,0,0,4.09,6.83,26.22,26.22,0,0,0,3.57,3.81A34.07,34.07,0,0,0,16.34,85a26.2,26.2,0,0,0,4.16,2.19,18.74,18.74,0,0,0,1.84.58c.23.07.47.1.69.18a6.69,6.69,0,0,0,2.51.42,12.74,12.74,0,0,1,1.62.18,26.4,26.4,0,0,0,7.16-.16,1.76,1.76,0,0,1,.31,0c1.38.2,2.62-.42,3.91-.69.72-.15,1.39-.53,2.1-.75a8.71,8.71,0,0,0,1.83-.84A14.68,14.68,0,0,0,45.59,84a4.89,4.89,0,0,1,.52-.5,16.46,16.46,0,0,0,3.25-3.81A17.82,17.82,0,0,0,50.81,77a25.08,25.08,0,0,0,.9-2.61,5,5,0,0,0,.34-2.1,1.39,1.39,0,0,1,.11-.6,9.28,9.28,0,0,0,.22-3.06,4.3,4.3,0,0,0-.16-.69,4.54,4.54,0,0,1-.17-1,5.88,5.88,0,0,0-.66-2.54A12.63,12.63,0,0,0,49,60.72a12.83,12.83,0,0,0-2.13-1.91A27.33,27.33,0,0,0,43,56.54C41.75,56,40.5,55.45,39.22,55a4.69,4.69,0,0,0-1.83-.59c-.72-.57-1.68-.51-2.48-.91a13.77,13.77,0,0,0-2.16-.61,11.37,11.37,0,0,1-1.17-.37,2.68,2.68,0,0,0-1.08-.3,1.28,1.28,0,0,1-.49-.13,8.13,8.13,0,0,0-1.76-.53c-.33-.05-.63-.28-1-.35-1.18-.22-2.25-.78-3.4-1a12.64,12.64,0,0,1-1.72-.64c-.53-.22-1.1-.36-1.64-.55-1-.35-2-.76-2.92-1.19a33.91,33.91,0,0,1-6.72-3.9,23.36,23.36,0,0,1-4-4,13.79,13.79,0,0,1-1.64-2.45,13.9,13.9,0,0,1-1.4-3.27,3.9,3.9,0,0,0-.2-.47,5.21,5.21,0,0,1-.47-1.78c0-.18-.16-.37-.19-.57-.1-.61-.2-1.21-.27-1.82-.08-.78-.11-1.57-.23-2.34a11,11,0,0,1,0-3.57c.11-.67.16-1.35.23-2a2.83,2.83,0,0,1,0-.41,24.18,24.18,0,0,1,.6-2.37,25,25,0,0,1,5-8.7,19.83,19.83,0,0,1,3.47-3.19c.86-.62,1.69-1.28,2.58-1.86a21.85,21.85,0,0,1,2.23-1.23c.73-.37,1.48-.7,2.22-1a4,4,0,0,1,.49-.15c.25-.08.52-.16.76-.26A3.35,3.35,0,0,1,21.47,2c.32,0,.63-.27,1-.31C23.59,1.52,24.65,1,25.82.9c.31,0,.62-.06.92-.09a4.28,4.28,0,0,0,.81-.08A8.86,8.86,0,0,1,30.21.5c.89,0,1.78,0,2.67,0a10.32,10.32,0,0,1,2.35.2,11.51,11.51,0,0,0,2,.26,5.25,5.25,0,0,1,1.3.25c.42.13.86.2,1.29.31l1.09.29c.23.06.45.13.68.18s.3,0,.41.06A15.18,15.18,0,0,0,44.41,3c.65.28,1.33.52,2,.76s1.43.45,2.12.74a5.1,5.1,0,0,0,2.4.4,4.6,4.6,0,0,1,.83,0,2.26,2.26,0,0,0,2.08-1.05,2.64,2.64,0,0,0,.23-.35c.15-.26.24-.62.47-.76a3.37,3.37,0,0,1,1.07-.27.54.54,0,0,1,.67.46,4.22,4.22,0,0,1,0,.62V24C56.31,24.22,56.27,24.46,56.26,24.64Z"/><path class="cls-1" d="M290.65,66.48c-1.19.12-1.14,0-1.14-1v-15a.85.85,0,0,1,.89-.21.82.82,0,0,1,.61.63c.12.34.31.67.46,1a46,46,0,0,0,2,4.34c.38.72.78,1.44,1.17,2.16a16.79,16.79,0,0,0,1.77,2.6,20.19,20.19,0,0,0,3,3,12.28,12.28,0,0,0,3.48,1.9l.87.32a1.25,1.25,0,0,0,1.07,0A1.11,1.11,0,0,0,305,66q0-9.25,0-18.54a3.54,3.54,0,0,0-1.53-.78,1.85,1.85,0,0,1-.4-.12c-1.43-.62-2.95-1-4.36-1.72a24.23,24.23,0,0,1-2.48-1.4,15.86,15.86,0,0,1-2.53-2.07,14.17,14.17,0,0,1-2.15-3,11,11,0,0,1-.87-2.38,10.39,10.39,0,0,1-.33-2.43,16.63,16.63,0,0,1,0-2.64,9.7,9.7,0,0,1,.49-2.8c.23-.6.41-1.22.67-1.81A10.13,10.13,0,0,1,293,23.79c.42-.49.77-1,1.21-1.53a18,18,0,0,1,3.43-2.83,24.16,24.16,0,0,1,2.9-1.51c.38-.17.8-.22,1.15-.38a5,5,0,0,1,1.16-.35,8,8,0,0,0,1.1-.25,10.19,10.19,0,0,0,1-.45c.2-1.15,0-2.32.14-3.5a3,3,0,0,1,1.47,0,4.75,4.75,0,0,1,.12.59c0,.65,0,1.3,0,2a1,1,0,0,0,.32.86,8.36,8.36,0,0,0,2.29,0,2.2,2.2,0,0,0,.47-1.46c0-.61,0-1.23,0-1.83.46-.33.89-.12,1.37-.2a6.39,6.39,0,0,1,.1.76c0,.72,0,1.44,0,2.16,0,.45.17.68.53.78.72.19,1.44.42,2.17.56.57.12,1.1.29,1.65.45a6.86,6.86,0,0,1,1.53.57,1.85,1.85,0,0,0,.49.11c.13,0,.3,0,.4.08a7.64,7.64,0,0,0,2.41.82,2.07,2.07,0,0,0,2.46-1,1.08,1.08,0,0,1,1.45-.51c.06.21.16.46.21.72a4.14,4.14,0,0,1,0,.61V30.15c0,.45.07.92-.51,1.2l-.79-.23-.73-1.72c-.08-.19-.15-.39-.23-.57-.56-1.17-1.06-2.38-1.7-3.5a15.8,15.8,0,0,0-5.1-5.79,5.68,5.68,0,0,0-2-1,2.9,2.9,0,0,1-.64-.31,1.8,1.8,0,0,0-1.54,0c0,.2-.07.4-.07.59V34.88c0,.17,0,.34,0,.48a2.13,2.13,0,0,0,1.27.85c.91.26,1.78.68,2.7.92a22.9,22.9,0,0,1,3.23,1.24A22.65,22.65,0,0,1,321.6,40a19.19,19.19,0,0,1,3.25,2.63,18,18,0,0,1,2.27,3.15c0,1,.85,1.7.79,2.72a5.35,5.35,0,0,0,.38,1.58,2.27,2.27,0,0,1,.12.5,11.37,11.37,0,0,1-.33,3.85,8,8,0,0,0-.21,1.31,1.76,1.76,0,0,1-.06.4,5.31,5.31,0,0,0-.65,1.71,18.13,18.13,0,0,1-2.35,3.58,29.66,29.66,0,0,1-2.3,2.19c-.68.56-1.47,1-2.18,1.51a18,18,0,0,1-3.19,1.53,14.62,14.62,0,0,1-2.55.73c-.29.08-.6.11-.89.2a5.32,5.32,0,0,1-1.89.39c-.39,0-.59.23-.6.68,0,.68,0,1.37,0,2,0,.28,0,.55,0,.82a.41.41,0,0,1-.41.39h-1a3.24,3.24,0,0,1-.16-.69c0-.61.08-1.22.09-1.83a3.66,3.66,0,0,0-.15-.7.83.83,0,0,0-.88-.7,10.1,10.1,0,0,0-1.23,0c-.58,0-.79.26-.8.83,0,.82,0,1.65,0,2.47,0,.54-.14.65-.69.66a.67.67,0,0,1-.2,0c-.61,0-.74-.12-.76-.7s0-1.23,0-1.85v-.82c0-.7-.26-1-.92-1.14-.93-.18-1.87-.32-2.8-.51a12.14,12.14,0,0,1-1.17-.36L299,66.25l-1.37-.4c-.07,0-.13-.08-.19-.07a5.29,5.29,0,0,1-2.17-.53,4.25,4.25,0,0,0-1-.15,9.74,9.74,0,0,0-2,0,1.28,1.28,0,0,0-.79.42C291.18,65.83,290.9,66.17,290.65,66.48Zm21.19-16.1c-.27.32-.17.72-.17,1.08,0,4.49,0,9,0,13.47a4.26,4.26,0,0,0,0,.62,5,5,0,0,0,.15.62,5.17,5.17,0,0,0,.74-.07c.36-.1.71-.25,1.07-.37a6.68,6.68,0,0,0,4.5-5.05,10.45,10.45,0,0,0,.11-4.49,4.76,4.76,0,0,0-.31-1,7.37,7.37,0,0,0-2.67-3,23,23,0,0,0-3.22-1.8C312,50.34,311.92,50.38,311.84,50.38ZM304.5,18.57a.94.94,0,0,0-.37,0,17.68,17.68,0,0,0-2,.81,6.84,6.84,0,0,0-3.86,5A6.1,6.1,0,0,0,299.84,30a10.49,10.49,0,0,0,2.71,2,7.26,7.26,0,0,0,2,.86,10,10,0,0,0,.11-1q0-6.52-.05-13C304.62,18.73,304.56,18.67,304.5,18.57Zm4.68,16.48c.12-.14.27-.25.31-.39a2.07,2.07,0,0,0,.05-.61V18.74a4.35,4.35,0,0,0,0-.51.66.66,0,0,0-.68-.63c-.45,0-.89,0-1.34,0a.81.81,0,0,0-.82.76,7.36,7.36,0,0,0,0,.82V32.73c0,.24,0,.49,0,.72a1.08,1.08,0,0,0,.85,1C308,34.62,308.55,34.83,309.18,35.05ZM306.84,57.4h0v7.81c0,.21,0,.42,0,.62a.74.74,0,0,0,.66.79,6.32,6.32,0,0,0,1.23.11.58.58,0,0,0,.61-.57,7,7,0,0,0,.07-1.12c0-4.87,0-9.74,0-14.61,0-1.61-.08-1.25-1.18-1.8a.48.48,0,0,0-.19-.09c-.9-.27-1.23-.13-1.22.83C306.86,52.05,306.84,54.72,306.84,57.4Z"/><path class="cls-1" d="M116.17,74.82a2.56,2.56,0,0,1,.4,0c.2,0,.4.1.6.16,0,.11.11.22.08.3a13.8,13.8,0,0,1-.46,1.55c-.28.69-.68,1.33-.92,2a9.59,9.59,0,0,1-1.29,2.3,17.73,17.73,0,0,1-2.36,3A21.58,21.58,0,0,1,108.36,87,21.26,21.26,0,0,1,105,88.45a9.55,9.55,0,0,1-2.56.66,9.19,9.19,0,0,0-2.19.46,4.52,4.52,0,0,1-1.41.22H93.71a5.38,5.38,0,0,1-1.32-.18,12.63,12.63,0,0,0-2.49-.5c-1-.06-2-.46-3-.59-.8-.11-1.54-.57-2.34-.76s-1.57-.62-2.39-.86a6.29,6.29,0,0,1-1.29-.6,39.94,39.94,0,0,1-3.56-2,27,27,0,0,1-3.68-3,16.26,16.26,0,0,1-2.47-2.88c-.44-.72-1-1.41-1.38-2.15a14.34,14.34,0,0,1-1.41-3,5.58,5.58,0,0,0-.34-.75,5.4,5.4,0,0,1-.29-.76c-.3-1.18-.59-2.37-.88-3.55a3.26,3.26,0,0,1-.14-.6c-.06-1.16-.11-2.32-.18-3.48,0-.38-.09-.75-.11-1.12s0-1,0-1.53.1-.74.14-1.12c.06-.75.11-1.49.17-2.24a1.52,1.52,0,0,1,0-.21,22.48,22.48,0,0,0,.73-2.55A20,20,0,0,1,69,51.51a28.43,28.43,0,0,1,2.85-4.73,31.29,31.29,0,0,1,4.7-5A25.56,25.56,0,0,1,80,39.35c1.1-.68,2.28-1.22,3.4-1.86.36-.2.84-.05,1.13-.42.84-.28,1.66-.63,2.51-.85,1.09-.29,2.2-.48,3.3-.71,0,0,.07,0,.1,0a6.3,6.3,0,0,1,2.82-.35c.72,0,1.44-.07,2.16-.1a8.44,8.44,0,0,1,1.33,0,28.59,28.59,0,0,0,3.7.11,3.82,3.82,0,0,1,1.1.21c.51.17,1.06.22,1.59.35a17.42,17.42,0,0,1,2.87.7c1.09.44,2.22.83,3.28,1.38a16.32,16.32,0,0,1,2.92,1.87,9.34,9.34,0,0,1,3,3.7c.6.67.6,1.59.94,2.36a2.82,2.82,0,0,1,.16,1c0,1,0,2.06,0,3.08a5.38,5.38,0,0,1-.27,1.3,6.56,6.56,0,0,1-.4,1,4.33,4.33,0,0,1-2.16,2.12,6.73,6.73,0,0,1-3.13.83c-1.13-.08-2.26,0-3.4,0a5,5,0,0,1-1.8-.33,7.37,7.37,0,0,0-1.06-.37,2.65,2.65,0,0,1-.94-.59,4.45,4.45,0,0,1-1.53-4.48,11.59,11.59,0,0,0,.42-1.69,21.54,21.54,0,0,1,.77-3.17,23.82,23.82,0,0,0,.45-2.5,4.22,4.22,0,0,0-.91-3.16A6.28,6.28,0,0,0,100,37.06a4.58,4.58,0,0,0-1.93-.55,20.38,20.38,0,0,1-2-.36,4.86,4.86,0,0,0-1.32,0c-.88.11-1.77.23-2.63.42a10.3,10.3,0,0,0-5.39,3.52,12.4,12.4,0,0,0-2.39,4.36c-.07.23-.17.45-.26.67a3.08,3.08,0,0,0-.16.38c-.12.49-.19,1-.34,1.48a7.18,7.18,0,0,0-.36,1.38c-.1,1-.32,2-.48,2.93-.07.47-.12.94-.15,1.42s0,1,0,1.44a17.52,17.52,0,0,1-.31,3.15,5.64,5.64,0,0,0,0,.82c0,2.43,0,4.87,0,7.3a8.84,8.84,0,0,0,.19,1.93,10.41,10.41,0,0,1,.15,2.55,12.36,12.36,0,0,0,.28,2.85c.19.83.26,1.69.39,2.53a2.09,2.09,0,0,0,.17.59,2.79,2.79,0,0,1,.36,1.47,1.09,1.09,0,0,0,.07.4c.33.9.61,1.81,1,2.67a17.6,17.6,0,0,0,1.28,2.33,13.43,13.43,0,0,0,2.48,2.84,11.29,11.29,0,0,0,2.94,1.82c.78.35,1.63.51,2.4.86a.79.79,0,0,0,.39.11,36.46,36.46,0,0,0,4.3.17,23.22,23.22,0,0,1,2.76-.16.65.65,0,0,0,.31,0,19.26,19.26,0,0,1,2.82-.89,17,17,0,0,0,5.27-3,18.17,18.17,0,0,0,3.27-3.51,25.85,25.85,0,0,0,2.28-4c.27-.53.39-1.15.62-1.71C116.05,75.1,116.1,75,116.17,74.82Z"/><path class="cls-1" d="M197.12,18.71c-.76-.06-1.44-.1-2.12-.17a1.64,1.64,0,0,1-.48-.18,5.51,5.51,0,0,0-.65-.31,7.22,7.22,0,0,1-3.14-2.2,10.48,10.48,0,0,1-1.62-2.7.75.75,0,0,1-.09-.29,17.27,17.27,0,0,1-.33-2.12,10.3,10.3,0,0,1,.18-1.82c0-.3.09-.61.14-.91a1.24,1.24,0,0,1,.09-.39,17,17,0,0,1,1.05-2,8.17,8.17,0,0,1,2.35-2.26,14,14,0,0,1,3.21-1.32A5.72,5.72,0,0,1,197,2a5.33,5.33,0,0,1,2.4.42c.41.17.86.25,1.25.45a8.6,8.6,0,0,1,3.66,3.46,12.62,12.62,0,0,1,1.18,3.77,2.48,2.48,0,0,1-.06,1c-.17.8-.37,1.59-.59,2.38a4.08,4.08,0,0,1-.35.73,8.45,8.45,0,0,1-4.2,3.86A11.11,11.11,0,0,1,197.12,18.71Z"/></g></g></svg>